<svg xmlns="http://www.w3.org/2000/svg" width="32" height="32" id="truck"><g transform="translate(17 -1672.362)"><path fill="#f8b84e" d="M5.879 1692.362H4.497v-4h10.504v4h-2.954"></path><path fill="#4bbfeb" d="M4.497 1682.362h5.73l4.767 6.02-10.504-.02z"></path><path fill="none" stroke="#2b4255" stroke-linecap="round" stroke-linejoin="round" d="M6 1689.362h1.014"></path><path style="line-height:normal;text-indent:0;text-align:start;text-decoration-line:none;text-decoration-style:solid;text-decoration-color:#000;text-transform:none;block-progression:tb;isolation:auto;mix-blend-mode:normal" fill="#f17f53" fill-rule="evenodd" d="M15 1691.362v-1h-1.492c-.677-.01-.677 1.01 0 1z" color="#000" font-family="sans-serif" font-weight="400" overflow="visible"></path><path style="line-height:normal;text-indent:0;text-align:start;text-decoration-line:none;text-decoration-style:solid;text-decoration-color:#000;text-transform:none;block-progression:tb;isolation:auto;mix-blend-mode:normal" fill="#f8b84e" d="m4.48 1682.362.013 5.982a.5.5 0 0 0 .5.5l9.505.017a.5.5 0 0 0 .377-.829l-4.335-5.519c-.094-.109-.23-.144-.375-.145-2.02.001-5.685-.01-5.685-.01zm1.02.98h4.439l3.455 4.517-7.9-.014.005-4.503z" color="#000" font-family="sans-serif" font-weight="400" overflow="visible"></path><path style="line-height:normal;text-indent:0;text-align:start;text-decoration-line:none;text-decoration-style:solid;text-decoration-color:#000;text-transform:none;block-progression:tb;isolation:auto;mix-blend-mode:normal" fill="#f8b84e" fill-rule="evenodd" d="M7.993 1682.861v6h1v-6z" color="#000" font-family="sans-serif" font-weight="400" overflow="visible"></path><path fill="#f05542" d="M-17 1684.485v-5.123H4.5v13H-17v-5.17"></path><path fill="#34485c" d="M-14.168 1694.362H-17v-2h32v2H-5.207z"></path><path fill="#576d7e" d="M8 1691.362a4 4 0 0 0-3.87 3h7.739a4 4 0 0 0-3.869-3z"></path><circle cx="-9" cy="1696.362" r="1" fill="none" stroke="#000" stroke-linecap="round" stroke-linejoin="round"></circle><g transform="translate(1 -1.5)"><circle cx="7" cy="1696.862" r="3" fill="#2b4255"></circle><circle cx="7" cy="1696.862" r="1" fill="#e9eded"></circle></g><path fill="#576d7e" d="M-9 1691.362a4 4 0 0 0-3.87 3h7.739a4 4 0 0 0-3.869-3z"></path><g transform="translate(-16 -1.5)"><circle cx="7" cy="1696.862" r="3" fill="#2b4255"></circle><circle cx="7" cy="1696.862" r="1" fill="#e9eded"></circle></g><path style="line-height:normal;text-indent:0;text-align:start;text-decoration-line:none;text-decoration-style:solid;text-decoration-color:#000;text-transform:none;block-progression:tb;isolation:auto;mix-blend-mode:normal" fill="#f17f53" fill-rule="evenodd" d="M-17 1691.362v-1h1.478c.676-.01.676 1.01 0 1z" color="#000" font-family="sans-serif" font-weight="400" overflow="visible"></path></g></svg>